<svg xmlns="http://www.w3.org/2000/svg" width="1400" height="860" viewBox="0 0 1400 860">
<rect width="100%" height="100%" fill="#f7f3ea"/>
<text x="40.0" y="46.0" font-size="30" font-weight="900" fill="#2c2d2e" font-family="PingFang TC, Noto Sans TC, sans-serif">靜舍的月光・鋼琴版（第一頁） Trail Vector Matrices</text>
<text x="40.0" y="76.0" font-size="17" font-weight="700" fill="#68635c" font-family="PingFang TC, Noto Sans TC, sans-serif">Guitar chord trail, vocal/Jianpu trail, and their intersection points</text>
<rect x="40" y="104" width="1320" height="238" rx="8" fill="#fffaf0" stroke="#d7d0c4"/>
<text x="64.0" y="135.0" font-size="24" font-weight="900" fill="#c9515b" font-family="PingFang TC, Noto Sans TC, sans-serif">Guitar Chord Trail Matrix</text>
<line x1="110" y1="314" x2="1330" y2="314" stroke="#9a9286" stroke-width="2"/>
<line x1="110.0" y1="150" x2="110.0" y2="314" stroke="#e5ded1" stroke-width="1"/>
<line x1="415.0" y1="150" x2="415.0" y2="314" stroke="#e5ded1" stroke-width="1"/>
<line x1="720.0" y1="150" x2="720.0" y2="314" stroke="#e5ded1" stroke-width="1"/>
<line x1="1025.0" y1="150" x2="1025.0" y2="314" stroke="#e5ded1" stroke-width="1"/>
<line x1="1330.0" y1="150" x2="1330.0" y2="314" stroke="#e5ded1" stroke-width="1"/>
<circle cx="664.5" cy="187.5" r="8" fill="#1176b8"/>
<text x="674.5" y="179.5" font-size="15" font-weight="900" fill="#1176b8" font-family="PingFang TC, Noto Sans TC, sans-serif">Am</text>
<circle cx="720.0" cy="251.1" r="8" fill="#1176b8"/>
<text x="730.0" y="243.1" font-size="15" font-weight="900" fill="#1176b8" font-family="PingFang TC, Noto Sans TC, sans-serif">Em</text>
<circle cx="775.5" cy="238.4" r="8" fill="#1176b8"/>
<text x="785.5" y="230.4" font-size="15" font-weight="900" fill="#1176b8" font-family="PingFang TC, Noto Sans TC, sans-serif">F</text>
<circle cx="830.9" cy="251.1" r="8" fill="#1176b8"/>
<text x="840.9" y="243.1" font-size="15" font-weight="900" fill="#1176b8" font-family="PingFang TC, Noto Sans TC, sans-serif">E</text>
<circle cx="886.4" cy="187.5" r="8" fill="#1176b8"/>
<text x="896.4" y="179.5" font-size="15" font-weight="900" fill="#1176b8" font-family="PingFang TC, Noto Sans TC, sans-serif">Am</text>
<circle cx="941.8" cy="251.1" r="8" fill="#1176b8"/>
<text x="951.8" y="243.1" font-size="15" font-weight="900" fill="#1176b8" font-family="PingFang TC, Noto Sans TC, sans-serif">Em</text>
<circle cx="997.3" cy="238.4" r="8" fill="#1176b8"/>
<text x="1007.3" y="230.4" font-size="15" font-weight="900" fill="#1176b8" font-family="PingFang TC, Noto Sans TC, sans-serif">F</text>
<circle cx="1052.7" cy="212.9" r="8" fill="#1176b8"/>
<text x="1062.7" y="204.9" font-size="15" font-weight="900" fill="#1176b8" font-family="PingFang TC, Noto Sans TC, sans-serif">G</text>
<circle cx="1108.2" cy="302.0" r="8" fill="#1176b8"/>
<text x="1118.2" y="294.0" font-size="15" font-weight="900" fill="#1176b8" font-family="PingFang TC, Noto Sans TC, sans-serif">C</text>
<circle cx="1163.6" cy="187.5" r="8" fill="#1176b8"/>
<text x="1173.6" y="179.5" font-size="15" font-weight="900" fill="#1176b8" font-family="PingFang TC, Noto Sans TC, sans-serif">Am</text>
<circle cx="1191.4" cy="302.0" r="8" fill="#1176b8"/>
<text x="1201.4" y="294.0" font-size="15" font-weight="900" fill="#1176b8" font-family="PingFang TC, Noto Sans TC, sans-serif">C/G</text>
<circle cx="1219.1" cy="238.4" r="8" fill="#1176b8"/>
<text x="1229.1" y="230.4" font-size="15" font-weight="900" fill="#1176b8" font-family="PingFang TC, Noto Sans TC, sans-serif">F</text>
<circle cx="1274.5" cy="212.9" r="8" fill="#1176b8"/>
<text x="1284.5" y="204.9" font-size="15" font-weight="900" fill="#1176b8" font-family="PingFang TC, Noto Sans TC, sans-serif">G</text>
<circle cx="1330.0" cy="238.4" r="8" fill="#1176b8"/>
<text x="1340.0" y="230.4" font-size="15" font-weight="900" fill="#1176b8" font-family="PingFang TC, Noto Sans TC, sans-serif">F</text>
<rect x="40" y="356" width="1320" height="238" rx="8" fill="#fffaf0" stroke="#d7d0c4"/>
<text x="64.0" y="387.0" font-size="24" font-weight="900" fill="#c9515b" font-family="PingFang TC, Noto Sans TC, sans-serif">Vocal / Jianpu Trail Matrix</text>
<line x1="110" y1="566" x2="1330" y2="566" stroke="#9a9286" stroke-width="2"/>
<line x1="110.0" y1="402" x2="110.0" y2="566" stroke="#e5ded1" stroke-width="1"/>
<line x1="415.0" y1="402" x2="415.0" y2="566" stroke="#e5ded1" stroke-width="1"/>
<line x1="720.0" y1="402" x2="720.0" y2="566" stroke="#e5ded1" stroke-width="1"/>
<line x1="1025.0" y1="402" x2="1025.0" y2="566" stroke="#e5ded1" stroke-width="1"/>
<line x1="1330.0" y1="402" x2="1330.0" y2="566" stroke="#e5ded1" stroke-width="1"/>
<circle cx="110.0" cy="554.0" r="5" fill="#2c2d2e"/>
<text x="117.0" y="547.0" font-size="13" font-weight="700" fill="#2c2d2e" font-family="PingFang TC, Noto Sans TC, sans-serif">每</text>
<circle cx="123.9" cy="554.0" r="5" fill="#2c2d2e"/>
<circle cx="137.7" cy="554.0" r="5" fill="#2c2d2e"/>
<text x="144.7" y="547.0" font-size="13" font-weight="700" fill="#2c2d2e" font-family="PingFang TC, Noto Sans TC, sans-serif">心</text>
<circle cx="151.6" cy="554.0" r="5" fill="#2c2d2e"/>
<circle cx="165.5" cy="554.0" r="5" fill="#2c2d2e"/>
<text x="172.5" y="547.0" font-size="13" font-weight="700" fill="#2c2d2e" font-family="PingFang TC, Noto Sans TC, sans-serif">某</text>
<circle cx="179.3" cy="554.0" r="5" fill="#2c2d2e"/>
<circle cx="193.2" cy="554.0" r="5" fill="#2c2d2e"/>
<text x="200.2" y="547.0" font-size="13" font-weight="700" fill="#2c2d2e" font-family="PingFang TC, Noto Sans TC, sans-serif">個</text>
<circle cx="207.0" cy="554.0" r="5" fill="#2c2d2e"/>
<circle cx="220.9" cy="554.0" r="5" fill="#2c2d2e"/>
<text x="227.9" y="547.0" font-size="13" font-weight="700" fill="#2c2d2e" font-family="PingFang TC, Noto Sans TC, sans-serif">方</text>
<circle cx="165.5" cy="554.0" r="5" fill="#2c2d2e"/>
<circle cx="179.3" cy="554.0" r="5" fill="#2c2d2e"/>
<text x="186.3" y="547.0" font-size="13" font-weight="700" fill="#2c2d2e" font-family="PingFang TC, Noto Sans TC, sans-serif">有</text>
<circle cx="193.2" cy="554.0" r="5" fill="#2c2d2e"/>
<circle cx="207.0" cy="554.0" r="5" fill="#2c2d2e"/>
<text x="214.0" y="547.0" font-size="13" font-weight="700" fill="#2c2d2e" font-family="PingFang TC, Noto Sans TC, sans-serif">記</text>
<circle cx="220.9" cy="554.0" r="5" fill="#2c2d2e"/>
<circle cx="234.8" cy="554.0" r="5" fill="#2c2d2e"/>
<text x="241.8" y="547.0" font-size="13" font-weight="700" fill="#2c2d2e" font-family="PingFang TC, Noto Sans TC, sans-serif">揮</text>
<circle cx="248.6" cy="554.0" r="5" fill="#2c2d2e"/>
<circle cx="262.5" cy="554.0" r="5" fill="#2c2d2e"/>
<text x="269.5" y="547.0" font-size="13" font-weight="700" fill="#2c2d2e" font-family="PingFang TC, Noto Sans TC, sans-serif">散</text>
<circle cx="220.9" cy="554.0" r="5" fill="#2c2d2e"/>
<circle cx="234.8" cy="554.0" r="5" fill="#2c2d2e"/>
<text x="241.8" y="547.0" font-size="13" font-weight="700" fill="#2c2d2e" font-family="PingFang TC, Noto Sans TC, sans-serif">個</text>
<circle cx="248.6" cy="554.0" r="5" fill="#2c2d2e"/>
<circle cx="262.5" cy="554.0" r="5" fill="#2c2d2e"/>
<text x="269.5" y="547.0" font-size="13" font-weight="700" fill="#2c2d2e" font-family="PingFang TC, Noto Sans TC, sans-serif">夜</text>
<circle cx="276.4" cy="554.0" r="5" fill="#2c2d2e"/>
<circle cx="290.2" cy="554.0" r="5" fill="#2c2d2e"/>
<text x="297.2" y="547.0" font-size="13" font-weight="700" fill="#2c2d2e" font-family="PingFang TC, Noto Sans TC, sans-serif">一</text>
<circle cx="304.1" cy="554.0" r="5" fill="#2c2d2e"/>
<circle cx="318.0" cy="554.0" r="5" fill="#2c2d2e"/>
<text x="325.0" y="547.0" font-size="13" font-weight="700" fill="#2c2d2e" font-family="PingFang TC, Noto Sans TC, sans-serif">地</text>
<circle cx="331.8" cy="554.0" r="5" fill="#2c2d2e"/>
<circle cx="276.4" cy="554.0" r="5" fill="#2c2d2e"/>
<text x="283.4" y="547.0" font-size="13" font-weight="700" fill="#2c2d2e" font-family="PingFang TC, Noto Sans TC, sans-serif">總</text>
<circle cx="290.2" cy="554.0" r="5" fill="#2c2d2e"/>
<circle cx="304.1" cy="554.0" r="5" fill="#2c2d2e"/>
<text x="311.1" y="547.0" font-size="13" font-weight="700" fill="#2c2d2e" font-family="PingFang TC, Noto Sans TC, sans-serif">著</text>
<circle cx="318.0" cy="554.0" r="5" fill="#2c2d2e"/>
<circle cx="331.8" cy="554.0" r="5" fill="#2c2d2e"/>
<text x="338.8" y="547.0" font-size="13" font-weight="700" fill="#2c2d2e" font-family="PingFang TC, Noto Sans TC, sans-serif">深</text>
<circle cx="345.7" cy="554.0" r="5" fill="#2c2d2e"/>
<circle cx="359.5" cy="554.0" r="5" fill="#2c2d2e"/>
<text x="366.5" y="547.0" font-size="13" font-weight="700" fill="#2c2d2e" font-family="PingFang TC, Noto Sans TC, sans-serif">思</text>
<circle cx="373.4" cy="554.0" r="5" fill="#2c2d2e"/>
<circle cx="110.0" cy="554.0" r="5" fill="#2c2d2e"/>
<text x="117.0" y="547.0" font-size="13" font-weight="700" fill="#2c2d2e" font-family="PingFang TC, Noto Sans TC, sans-serif">世</text>
<circle cx="123.9" cy="554.0" r="5" fill="#2c2d2e"/>
<circle cx="137.7" cy="554.0" r="5" fill="#2c2d2e"/>
<text x="144.7" y="547.0" font-size="13" font-weight="700" fill="#2c2d2e" font-family="PingFang TC, Noto Sans TC, sans-serif">萬</text>
<circle cx="151.6" cy="554.0" r="5" fill="#2c2d2e"/>
<circle cx="165.5" cy="554.0" r="5" fill="#2c2d2e"/>
<text x="172.5" y="547.0" font-size="13" font-weight="700" fill="#2c2d2e" font-family="PingFang TC, Noto Sans TC, sans-serif">的</text>
<circle cx="179.3" cy="554.0" r="5" fill="#2c2d2e"/>
<circle cx="193.2" cy="554.0" r="5" fill="#2c2d2e"/>
<text x="200.2" y="547.0" font-size="13" font-weight="700" fill="#2c2d2e" font-family="PingFang TC, Noto Sans TC, sans-serif">幻</text>
<circle cx="207.0" cy="554.0" r="5" fill="#2c2d2e"/>
<circle cx="220.9" cy="554.0" r="5" fill="#2c2d2e"/>
<text x="227.9" y="547.0" font-size="13" font-weight="700" fill="#2c2d2e" font-family="PingFang TC, Noto Sans TC, sans-serif">把</text>
<circle cx="234.8" cy="554.0" r="5" fill="#2c2d2e"/>
<circle cx="248.6" cy="554.0" r="5" fill="#2c2d2e"/>
<text x="255.6" y="547.0" font-size="13" font-weight="700" fill="#2c2d2e" font-family="PingFang TC, Noto Sans TC, sans-serif">情</text>
<circle cx="262.5" cy="554.0" r="5" fill="#2c2d2e"/>
<circle cx="276.4" cy="554.0" r="5" fill="#2c2d2e"/>
<text x="283.4" y="547.0" font-size="13" font-weight="700" fill="#2c2d2e" font-family="PingFang TC, Noto Sans TC, sans-serif">人</text>
<circle cx="290.2" cy="554.0" r="5" fill="#2c2d2e"/>
<circle cx="304.1" cy="554.0" r="5" fill="#2c2d2e"/>
<text x="311.1" y="547.0" font-size="13" font-weight="700" fill="#2c2d2e" font-family="PingFang TC, Noto Sans TC, sans-serif">兩</text>
<circle cx="318.0" cy="554.0" r="5" fill="#2c2d2e"/>
<rect x="40" y="608" width="1320" height="238" rx="8" fill="#fffaf0" stroke="#d7d0c4"/>
<text x="64.0" y="639.0" font-size="24" font-weight="900" fill="#c9515b" font-family="PingFang TC, Noto Sans TC, sans-serif">Intersection Trail Matrix</text>
<line x1="110" y1="818" x2="1330" y2="818" stroke="#9a9286" stroke-width="2"/>
<line x1="110.0" y1="654" x2="110.0" y2="818" stroke="#e5ded1" stroke-width="1"/>
<line x1="415.0" y1="654" x2="415.0" y2="818" stroke="#e5ded1" stroke-width="1"/>
<line x1="720.0" y1="654" x2="720.0" y2="818" stroke="#e5ded1" stroke-width="1"/>
<line x1="1025.0" y1="654" x2="1025.0" y2="818" stroke="#e5ded1" stroke-width="1"/>
<line x1="1330.0" y1="654" x2="1330.0" y2="818" stroke="#e5ded1" stroke-width="1"/>
<rect x="658.5" y="742.7" width="12" height="12" rx="3" fill="#c9515b"/>
<text x="673.5" y="741.7" font-size="13" font-weight="850" fill="#c9515b" font-family="PingFang TC, Noto Sans TC, sans-serif">Am/每</text>
<rect x="714.0" y="774.5" width="12" height="12" rx="3" fill="#c9515b"/>
<text x="729.0" y="773.5" font-size="13" font-weight="850" fill="#c9515b" font-family="PingFang TC, Noto Sans TC, sans-serif">Em/一</text>
<rect x="769.5" y="768.2" width="12" height="12" rx="3" fill="#c9515b"/>
<text x="784.5" y="767.2" font-size="13" font-weight="850" fill="#c9515b" font-family="PingFang TC, Noto Sans TC, sans-serif">F/總</text>
<rect x="824.9" y="774.5" width="12" height="12" rx="3" fill="#c9515b"/>
<text x="839.9" y="773.5" font-size="13" font-weight="850" fill="#c9515b" font-family="PingFang TC, Noto Sans TC, sans-serif">E/記</text>
<rect x="880.4" y="742.7" width="12" height="12" rx="3" fill="#c9515b"/>
<text x="895.4" y="741.7" font-size="13" font-weight="850" fill="#c9515b" font-family="PingFang TC, Noto Sans TC, sans-serif">Am/每</text>
<rect x="935.8" y="774.5" width="12" height="12" rx="3" fill="#c9515b"/>
<text x="950.8" y="773.5" font-size="13" font-weight="850" fill="#c9515b" font-family="PingFang TC, Noto Sans TC, sans-serif">Em/某</text>
<rect x="991.3" y="768.2" width="12" height="12" rx="3" fill="#c9515b"/>
<text x="1006.3" y="767.2" font-size="13" font-weight="850" fill="#c9515b" font-family="PingFang TC, Noto Sans TC, sans-serif">F/總</text>
<rect x="1046.7" y="755.5" width="12" height="12" rx="3" fill="#c9515b"/>
<text x="1061.7" y="754.5" font-size="13" font-weight="850" fill="#c9515b" font-family="PingFang TC, Noto Sans TC, sans-serif">G/最</text>
<rect x="1102.2" y="800.0" width="12" height="12" rx="3" fill="#c9515b"/>
<text x="1117.2" y="799.0" font-size="13" font-weight="850" fill="#c9515b" font-family="PingFang TC, Noto Sans TC, sans-serif">C/世</text>
<rect x="1157.6" y="742.7" width="12" height="12" rx="3" fill="#c9515b"/>
<text x="1172.6" y="741.7" font-size="13" font-weight="850" fill="#c9515b" font-family="PingFang TC, Noto Sans TC, sans-serif">Am/變</text>
<rect x="1185.4" y="800.0" width="12" height="12" rx="3" fill="#c9515b"/>
<text x="1200.4" y="799.0" font-size="13" font-weight="850" fill="#c9515b" font-family="PingFang TC, Noto Sans TC, sans-serif">C/G/愛</text>
<rect x="1213.1" y="768.2" width="12" height="12" rx="3" fill="#c9515b"/>
<text x="1228.1" y="767.2" font-size="13" font-weight="850" fill="#c9515b" font-family="PingFang TC, Noto Sans TC, sans-serif">F/有</text>
<rect x="1268.5" y="755.5" width="12" height="12" rx="3" fill="#c9515b"/>
<text x="1283.5" y="754.5" font-size="13" font-weight="850" fill="#c9515b" font-family="PingFang TC, Noto Sans TC, sans-serif">G/分</text>
<rect x="1324.0" y="768.2" width="12" height="12" rx="3" fill="#c9515b"/>
<text x="1339.0" y="767.2" font-size="13" font-weight="850" fill="#c9515b" font-family="PingFang TC, Noto Sans TC, sans-serif">F/端</text>
</svg>