<svg xmlns="http://www.w3.org/2000/svg" width="1400" height="860" viewBox="0 0 1400 860">
<rect width="100%" height="100%" fill="#f7f3ea"/>
<text x="40.0" y="46.0" font-size="30" font-weight="900" fill="#2c2d2e" font-family="PingFang TC, Noto Sans TC, sans-serif">刻在我心底的名字 Trail Vector Matrices</text>
<text x="40.0" y="76.0" font-size="17" font-weight="700" fill="#68635c" font-family="PingFang TC, Noto Sans TC, sans-serif">Guitar chord trail, vocal/Jianpu trail, and their intersection points</text>
<rect x="40" y="104" width="1320" height="238" rx="8" fill="#fffaf0" stroke="#d7d0c4"/>
<text x="64.0" y="135.0" font-size="24" font-weight="900" fill="#c9515b" font-family="PingFang TC, Noto Sans TC, sans-serif">Guitar Chord Trail Matrix</text>
<line x1="110" y1="314" x2="1330" y2="314" stroke="#9a9286" stroke-width="2"/>
<line x1="110.0" y1="150" x2="110.0" y2="314" stroke="#e5ded1" stroke-width="1"/>
<line x1="415.0" y1="150" x2="415.0" y2="314" stroke="#e5ded1" stroke-width="1"/>
<line x1="720.0" y1="150" x2="720.0" y2="314" stroke="#e5ded1" stroke-width="1"/>
<line x1="1025.0" y1="150" x2="1025.0" y2="314" stroke="#e5ded1" stroke-width="1"/>
<line x1="1330.0" y1="150" x2="1330.0" y2="314" stroke="#e5ded1" stroke-width="1"/>
<circle cx="211.7" cy="302.0" r="8" fill="#1176b8"/>
<text x="221.7" y="294.0" font-size="15" font-weight="900" fill="#1176b8" font-family="PingFang TC, Noto Sans TC, sans-serif">C</text>
<circle cx="237.1" cy="251.1" r="8" fill="#1176b8"/>
<text x="247.1" y="243.1" font-size="15" font-weight="900" fill="#1176b8" font-family="PingFang TC, Noto Sans TC, sans-serif">E7</text>
<circle cx="262.5" cy="187.5" r="8" fill="#1176b8"/>
<text x="272.5" y="179.5" font-size="15" font-weight="900" fill="#1176b8" font-family="PingFang TC, Noto Sans TC, sans-serif">Am</text>
<circle cx="287.9" cy="302.0" r="8" fill="#1176b8"/>
<text x="297.9" y="294.0" font-size="15" font-weight="900" fill="#1176b8" font-family="PingFang TC, Noto Sans TC, sans-serif">C7</text>
<circle cx="313.3" cy="238.4" r="8" fill="#1176b8"/>
<text x="323.3" y="230.4" font-size="15" font-weight="900" fill="#1176b8" font-family="PingFang TC, Noto Sans TC, sans-serif">F</text>
<circle cx="338.8" cy="302.0" r="8" fill="#1176b8"/>
<text x="348.8" y="294.0" font-size="15" font-weight="900" fill="#1176b8" font-family="PingFang TC, Noto Sans TC, sans-serif">C</text>
<circle cx="364.2" cy="276.5" r="8" fill="#1176b8"/>
<text x="374.2" y="268.5" font-size="15" font-weight="900" fill="#1176b8" font-family="PingFang TC, Noto Sans TC, sans-serif">Dm</text>
<circle cx="376.9" cy="212.9" r="8" fill="#1176b8"/>
<text x="386.9" y="204.9" font-size="15" font-weight="900" fill="#1176b8" font-family="PingFang TC, Noto Sans TC, sans-serif">G7</text>
<circle cx="389.6" cy="302.0" r="8" fill="#1176b8"/>
<text x="399.6" y="294.0" font-size="15" font-weight="900" fill="#1176b8" font-family="PingFang TC, Noto Sans TC, sans-serif">C</text>
<circle cx="415.0" cy="251.1" r="8" fill="#1176b8"/>
<text x="425.0" y="243.1" font-size="15" font-weight="900" fill="#1176b8" font-family="PingFang TC, Noto Sans TC, sans-serif">E7</text>
<circle cx="440.4" cy="187.5" r="8" fill="#1176b8"/>
<text x="450.4" y="179.5" font-size="15" font-weight="900" fill="#1176b8" font-family="PingFang TC, Noto Sans TC, sans-serif">Am</text>
<circle cx="465.8" cy="302.0" r="8" fill="#1176b8"/>
<text x="475.8" y="294.0" font-size="15" font-weight="900" fill="#1176b8" font-family="PingFang TC, Noto Sans TC, sans-serif">C7</text>
<circle cx="491.2" cy="238.4" r="8" fill="#1176b8"/>
<text x="501.2" y="230.4" font-size="15" font-weight="900" fill="#1176b8" font-family="PingFang TC, Noto Sans TC, sans-serif">F</text>
<circle cx="516.7" cy="238.4" r="8" fill="#1176b8"/>
<text x="526.7" y="230.4" font-size="15" font-weight="900" fill="#1176b8" font-family="PingFang TC, Noto Sans TC, sans-serif">Fm</text>
<circle cx="542.1" cy="212.9" r="8" fill="#1176b8"/>
<text x="552.1" y="204.9" font-size="15" font-weight="900" fill="#1176b8" font-family="PingFang TC, Noto Sans TC, sans-serif">G</text>
<circle cx="567.5" cy="302.0" r="8" fill="#1176b8"/>
<text x="577.5" y="294.0" font-size="15" font-weight="900" fill="#1176b8" font-family="PingFang TC, Noto Sans TC, sans-serif">C</text>
<circle cx="592.9" cy="251.1" r="8" fill="#1176b8"/>
<text x="602.9" y="243.1" font-size="15" font-weight="900" fill="#1176b8" font-family="PingFang TC, Noto Sans TC, sans-serif">E7</text>
<circle cx="618.3" cy="187.5" r="8" fill="#1176b8"/>
<text x="628.3" y="179.5" font-size="15" font-weight="900" fill="#1176b8" font-family="PingFang TC, Noto Sans TC, sans-serif">Am</text>
<circle cx="643.8" cy="276.5" r="8" fill="#1176b8"/>
<text x="653.8" y="268.5" font-size="15" font-weight="900" fill="#1176b8" font-family="PingFang TC, Noto Sans TC, sans-serif">D7</text>
<circle cx="618.3" cy="187.5" r="8" fill="#1176b8"/>
<text x="628.3" y="179.5" font-size="15" font-weight="900" fill="#1176b8" font-family="PingFang TC, Noto Sans TC, sans-serif">Am</text>
<circle cx="643.8" cy="276.5" r="8" fill="#1176b8"/>
<text x="653.8" y="268.5" font-size="15" font-weight="900" fill="#1176b8" font-family="PingFang TC, Noto Sans TC, sans-serif">D7</text>
<circle cx="669.2" cy="276.5" r="8" fill="#1176b8"/>
<text x="679.2" y="268.5" font-size="15" font-weight="900" fill="#1176b8" font-family="PingFang TC, Noto Sans TC, sans-serif">Dm</text>
<circle cx="694.6" cy="212.9" r="8" fill="#1176b8"/>
<text x="704.6" y="204.9" font-size="15" font-weight="900" fill="#1176b8" font-family="PingFang TC, Noto Sans TC, sans-serif">G7</text>
<circle cx="669.2" cy="276.5" r="8" fill="#1176b8"/>
<text x="679.2" y="268.5" font-size="15" font-weight="900" fill="#1176b8" font-family="PingFang TC, Noto Sans TC, sans-serif">Dm</text>
<circle cx="694.6" cy="212.9" r="8" fill="#1176b8"/>
<text x="704.6" y="204.9" font-size="15" font-weight="900" fill="#1176b8" font-family="PingFang TC, Noto Sans TC, sans-serif">G7</text>
<circle cx="720.0" cy="251.1" r="8" fill="#1176b8"/>
<text x="730.0" y="243.1" font-size="15" font-weight="900" fill="#1176b8" font-family="PingFang TC, Noto Sans TC, sans-serif">Em7</text>
<circle cx="745.4" cy="187.5" r="8" fill="#1176b8"/>
<text x="755.4" y="179.5" font-size="15" font-weight="900" fill="#1176b8" font-family="PingFang TC, Noto Sans TC, sans-serif">Am</text>
<circle cx="720.0" cy="251.1" r="8" fill="#1176b8"/>
<text x="730.0" y="243.1" font-size="15" font-weight="900" fill="#1176b8" font-family="PingFang TC, Noto Sans TC, sans-serif">Em7</text>
<circle cx="745.4" cy="187.5" r="8" fill="#1176b8"/>
<text x="755.4" y="179.5" font-size="15" font-weight="900" fill="#1176b8" font-family="PingFang TC, Noto Sans TC, sans-serif">Am</text>
<circle cx="770.8" cy="276.5" r="8" fill="#1176b8"/>
<text x="780.8" y="268.5" font-size="15" font-weight="900" fill="#1176b8" font-family="PingFang TC, Noto Sans TC, sans-serif">Dm</text>
<circle cx="796.2" cy="212.9" r="8" fill="#1176b8"/>
<text x="806.2" y="204.9" font-size="15" font-weight="900" fill="#1176b8" font-family="PingFang TC, Noto Sans TC, sans-serif">G</text>
<circle cx="821.7" cy="302.0" r="8" fill="#1176b8"/>
<text x="831.7" y="294.0" font-size="15" font-weight="900" fill="#1176b8" font-family="PingFang TC, Noto Sans TC, sans-serif">C</text>
<circle cx="847.1" cy="251.1" r="8" fill="#1176b8"/>
<text x="857.1" y="243.1" font-size="15" font-weight="900" fill="#1176b8" font-family="PingFang TC, Noto Sans TC, sans-serif">E7</text>
<circle cx="872.5" cy="187.5" r="8" fill="#1176b8"/>
<text x="882.5" y="179.5" font-size="15" font-weight="900" fill="#1176b8" font-family="PingFang TC, Noto Sans TC, sans-serif">Am</text>
<circle cx="897.9" cy="276.5" r="8" fill="#1176b8"/>
<text x="907.9" y="268.5" font-size="15" font-weight="900" fill="#1176b8" font-family="PingFang TC, Noto Sans TC, sans-serif">D7</text>
<circle cx="923.3" cy="276.5" r="8" fill="#1176b8"/>
<text x="933.3" y="268.5" font-size="15" font-weight="900" fill="#1176b8" font-family="PingFang TC, Noto Sans TC, sans-serif">Dm</text>
<circle cx="948.8" cy="212.9" r="8" fill="#1176b8"/>
<text x="958.8" y="204.9" font-size="15" font-weight="900" fill="#1176b8" font-family="PingFang TC, Noto Sans TC, sans-serif">G7</text>
<circle cx="923.3" cy="276.5" r="8" fill="#1176b8"/>
<text x="933.3" y="268.5" font-size="15" font-weight="900" fill="#1176b8" font-family="PingFang TC, Noto Sans TC, sans-serif">Dm</text>
<circle cx="948.8" cy="212.9" r="8" fill="#1176b8"/>
<text x="958.8" y="204.9" font-size="15" font-weight="900" fill="#1176b8" font-family="PingFang TC, Noto Sans TC, sans-serif">G7</text>
<circle cx="974.2" cy="251.1" r="8" fill="#1176b8"/>
<text x="984.2" y="243.1" font-size="15" font-weight="900" fill="#1176b8" font-family="PingFang TC, Noto Sans TC, sans-serif">Em7</text>
<circle cx="999.6" cy="187.5" r="8" fill="#1176b8"/>
<text x="1009.6" y="179.5" font-size="15" font-weight="900" fill="#1176b8" font-family="PingFang TC, Noto Sans TC, sans-serif">Am</text>
<circle cx="974.2" cy="251.1" r="8" fill="#1176b8"/>
<text x="984.2" y="243.1" font-size="15" font-weight="900" fill="#1176b8" font-family="PingFang TC, Noto Sans TC, sans-serif">Em7</text>
<circle cx="999.6" cy="187.5" r="8" fill="#1176b8"/>
<text x="1009.6" y="179.5" font-size="15" font-weight="900" fill="#1176b8" font-family="PingFang TC, Noto Sans TC, sans-serif">Am</text>
<circle cx="1025.0" cy="276.5" r="8" fill="#1176b8"/>
<text x="1035.0" y="268.5" font-size="15" font-weight="900" fill="#1176b8" font-family="PingFang TC, Noto Sans TC, sans-serif">Dm</text>
<circle cx="1050.4" cy="212.9" r="8" fill="#1176b8"/>
<text x="1060.4" y="204.9" font-size="15" font-weight="900" fill="#1176b8" font-family="PingFang TC, Noto Sans TC, sans-serif">G</text>
<circle cx="1075.8" cy="302.0" r="8" fill="#1176b8"/>
<text x="1085.8" y="294.0" font-size="15" font-weight="900" fill="#1176b8" font-family="PingFang TC, Noto Sans TC, sans-serif">C</text>
<circle cx="1025.0" cy="276.5" r="8" fill="#1176b8"/>
<text x="1035.0" y="268.5" font-size="15" font-weight="900" fill="#1176b8" font-family="PingFang TC, Noto Sans TC, sans-serif">Dm</text>
<circle cx="1050.4" cy="212.9" r="8" fill="#1176b8"/>
<text x="1060.4" y="204.9" font-size="15" font-weight="900" fill="#1176b8" font-family="PingFang TC, Noto Sans TC, sans-serif">G</text>
<circle cx="1075.8" cy="302.0" r="8" fill="#1176b8"/>
<text x="1085.8" y="294.0" font-size="15" font-weight="900" fill="#1176b8" font-family="PingFang TC, Noto Sans TC, sans-serif">C</text>
<circle cx="1177.5" cy="302.0" r="8" fill="#1176b8"/>
<text x="1187.5" y="294.0" font-size="15" font-weight="900" fill="#1176b8" font-family="PingFang TC, Noto Sans TC, sans-serif">C</text>
<circle cx="1202.9" cy="251.1" r="8" fill="#1176b8"/>
<text x="1212.9" y="243.1" font-size="15" font-weight="900" fill="#1176b8" font-family="PingFang TC, Noto Sans TC, sans-serif">E7</text>
<circle cx="1228.3" cy="187.5" r="8" fill="#1176b8"/>
<text x="1238.3" y="179.5" font-size="15" font-weight="900" fill="#1176b8" font-family="PingFang TC, Noto Sans TC, sans-serif">Am</text>
<circle cx="1253.8" cy="302.0" r="8" fill="#1176b8"/>
<text x="1263.8" y="294.0" font-size="15" font-weight="900" fill="#1176b8" font-family="PingFang TC, Noto Sans TC, sans-serif">C7</text>
<circle cx="1279.2" cy="238.4" r="8" fill="#1176b8"/>
<text x="1289.2" y="230.4" font-size="15" font-weight="900" fill="#1176b8" font-family="PingFang TC, Noto Sans TC, sans-serif">F</text>
<circle cx="1304.6" cy="238.4" r="8" fill="#1176b8"/>
<text x="1314.6" y="230.4" font-size="15" font-weight="900" fill="#1176b8" font-family="PingFang TC, Noto Sans TC, sans-serif">Fm</text>
<circle cx="1330.0" cy="212.9" r="8" fill="#1176b8"/>
<text x="1340.0" y="204.9" font-size="15" font-weight="900" fill="#1176b8" font-family="PingFang TC, Noto Sans TC, sans-serif">G</text>
<rect x="40" y="356" width="1320" height="238" rx="8" fill="#fffaf0" stroke="#d7d0c4"/>
<text x="64.0" y="387.0" font-size="24" font-weight="900" fill="#c9515b" font-family="PingFang TC, Noto Sans TC, sans-serif">Vocal / Jianpu Trail Matrix</text>
<line x1="110" y1="566" x2="1330" y2="566" stroke="#9a9286" stroke-width="2"/>
<line x1="110.0" y1="402" x2="110.0" y2="566" stroke="#e5ded1" stroke-width="1"/>
<line x1="415.0" y1="402" x2="415.0" y2="566" stroke="#e5ded1" stroke-width="1"/>
<line x1="720.0" y1="402" x2="720.0" y2="566" stroke="#e5ded1" stroke-width="1"/>
<line x1="1025.0" y1="402" x2="1025.0" y2="566" stroke="#e5ded1" stroke-width="1"/>
<line x1="1330.0" y1="402" x2="1330.0" y2="566" stroke="#e5ded1" stroke-width="1"/>
<circle cx="110.0" cy="554.0" r="5" fill="#2c2d2e"/>
<text x="117.0" y="547.0" font-size="13" font-weight="700" fill="#2c2d2e" font-family="PingFang TC, Noto Sans TC, sans-serif">O</text>
<circle cx="116.4" cy="554.0" r="5" fill="#2c2d2e"/>
<circle cx="122.7" cy="554.0" r="5" fill="#2c2d2e"/>
<text x="129.7" y="547.0" font-size="13" font-weight="700" fill="#2c2d2e" font-family="PingFang TC, Noto Sans TC, sans-serif">b</text>
<circle cx="129.1" cy="554.0" r="5" fill="#2c2d2e"/>
<circle cx="135.4" cy="554.0" r="5" fill="#2c2d2e"/>
<text x="142.4" y="547.0" font-size="13" font-weight="700" fill="#2c2d2e" font-family="PingFang TC, Noto Sans TC, sans-serif">i</text>
<circle cx="141.8" cy="554.0" r="5" fill="#2c2d2e"/>
<circle cx="148.1" cy="554.0" r="5" fill="#2c2d2e"/>
<text x="155.1" y="547.0" font-size="13" font-weight="700" fill="#2c2d2e" font-family="PingFang TC, Noto Sans TC, sans-serif">-</text>
<circle cx="154.5" cy="554.0" r="5" fill="#2c2d2e"/>
<circle cx="160.8" cy="554.0" r="5" fill="#2c2d2e"/>
<text x="167.8" y="547.0" font-size="13" font-weight="700" fill="#2c2d2e" font-family="PingFang TC, Noto Sans TC, sans-serif">e</text>
<circle cx="167.2" cy="554.0" r="5" fill="#2c2d2e"/>
<circle cx="173.5" cy="554.0" r="5" fill="#2c2d2e"/>
<text x="180.5" y="547.0" font-size="13" font-weight="700" fill="#2c2d2e" font-family="PingFang TC, Noto Sans TC, sans-serif">法</text>
<circle cx="179.9" cy="554.0" r="5" fill="#2c2d2e"/>
<circle cx="186.2" cy="554.0" r="5" fill="#2c2d2e"/>
<text x="193.2" y="547.0" font-size="13" font-weight="700" fill="#2c2d2e" font-family="PingFang TC, Noto Sans TC, sans-serif">：</text>
<circle cx="192.6" cy="554.0" r="5" fill="#2c2d2e"/>
<circle cx="199.0" cy="554.0" r="5" fill="#2c2d2e"/>
<text x="206.0" y="547.0" font-size="13" font-weight="700" fill="#2c2d2e" font-family="PingFang TC, Noto Sans TC, sans-serif">記</text>
<circle cx="205.3" cy="554.0" r="5" fill="#2c2d2e"/>
<circle cx="211.7" cy="554.0" r="5" fill="#2c2d2e"/>
<text x="218.7" y="547.0" font-size="13" font-weight="700" fill="#2c2d2e" font-family="PingFang TC, Noto Sans TC, sans-serif">）</text>
<circle cx="218.0" cy="554.0" r="5" fill="#2c2d2e"/>
<circle cx="224.4" cy="554.0" r="5" fill="#2c2d2e"/>
<text x="231.4" y="547.0" font-size="13" font-weight="700" fill="#2c2d2e" font-family="PingFang TC, Noto Sans TC, sans-serif">幾</text>
<circle cx="230.7" cy="554.0" r="5" fill="#2c2d2e"/>
<circle cx="237.1" cy="554.0" r="5" fill="#2c2d2e"/>
<text x="244.1" y="547.0" font-size="13" font-weight="700" fill="#2c2d2e" font-family="PingFang TC, Noto Sans TC, sans-serif">我</text>
<circle cx="243.4" cy="554.0" r="5" fill="#2c2d2e"/>
<circle cx="249.8" cy="554.0" r="5" fill="#2c2d2e"/>
<text x="256.8" y="547.0" font-size="13" font-weight="700" fill="#2c2d2e" font-family="PingFang TC, Noto Sans TC, sans-serif">訴</text>
<circle cx="256.1" cy="554.0" r="5" fill="#2c2d2e"/>
<circle cx="262.5" cy="554.0" r="5" fill="#2c2d2e"/>
<text x="269.5" y="547.0" font-size="13" font-weight="700" fill="#2c2d2e" font-family="PingFang TC, Noto Sans TC, sans-serif">自</text>
<circle cx="268.9" cy="554.0" r="5" fill="#2c2d2e"/>
<circle cx="135.4" cy="554.0" r="5" fill="#2c2d2e"/>
<text x="142.4" y="547.0" font-size="13" font-weight="700" fill="#2c2d2e" font-family="PingFang TC, Noto Sans TC, sans-serif">越</text>
<circle cx="141.8" cy="554.0" r="5" fill="#2c2d2e"/>
<circle cx="148.1" cy="554.0" r="5" fill="#2c2d2e"/>
<text x="155.1" y="547.0" font-size="13" font-weight="700" fill="#2c2d2e" font-family="PingFang TC, Noto Sans TC, sans-serif">努</text>
<circle cx="154.5" cy="554.0" r="5" fill="#2c2d2e"/>
<circle cx="160.8" cy="554.0" r="5" fill="#2c2d2e"/>
<text x="167.8" y="547.0" font-size="13" font-weight="700" fill="#2c2d2e" font-family="PingFang TC, Noto Sans TC, sans-serif">趕</text>
<circle cx="167.2" cy="554.0" r="5" fill="#2c2d2e"/>
<circle cx="173.5" cy="554.0" r="5" fill="#2c2d2e"/>
<text x="180.5" y="547.0" font-size="13" font-weight="700" fill="#2c2d2e" font-family="PingFang TC, Noto Sans TC, sans-serif">光</text>
<circle cx="179.9" cy="554.0" r="5" fill="#2c2d2e"/>
<circle cx="186.2" cy="554.0" r="5" fill="#2c2d2e"/>
<text x="193.2" y="547.0" font-size="13" font-weight="700" fill="#2c2d2e" font-family="PingFang TC, Noto Sans TC, sans-serif">影</text>
<circle cx="160.8" cy="554.0" r="5" fill="#2c2d2e"/>
<circle cx="167.2" cy="554.0" r="5" fill="#2c2d2e"/>
<text x="174.2" y="547.0" font-size="13" font-weight="700" fill="#2c2d2e" font-family="PingFang TC, Noto Sans TC, sans-serif">無</text>
<circle cx="173.5" cy="554.0" r="5" fill="#2c2d2e"/>
<circle cx="179.9" cy="554.0" r="5" fill="#2c2d2e"/>
<text x="186.9" y="547.0" font-size="13" font-weight="700" fill="#2c2d2e" font-family="PingFang TC, Noto Sans TC, sans-serif">抽</text>
<circle cx="186.2" cy="554.0" r="5" fill="#2c2d2e"/>
<circle cx="192.6" cy="554.0" r="5" fill="#2c2d2e"/>
<text x="199.6" y="547.0" font-size="13" font-weight="700" fill="#2c2d2e" font-family="PingFang TC, Noto Sans TC, sans-serif">而</text>
<circle cx="199.0" cy="554.0" r="5" fill="#2c2d2e"/>
<circle cx="186.2" cy="554.0" r="5" fill="#2c2d2e"/>
<text x="193.2" y="547.0" font-size="13" font-weight="700" fill="#2c2d2e" font-family="PingFang TC, Noto Sans TC, sans-serif">J</text>
<circle cx="192.6" cy="554.0" r="5" fill="#2c2d2e"/>
<circle cx="199.0" cy="554.0" r="5" fill="#2c2d2e"/>
<text x="206.0" y="547.0" font-size="13" font-weight="700" fill="#2c2d2e" font-family="PingFang TC, Noto Sans TC, sans-serif">t</text>
<circle cx="205.3" cy="554.0" r="5" fill="#2c2d2e"/>
<circle cx="211.7" cy="554.0" r="5" fill="#2c2d2e"/>
<text x="218.7" y="547.0" font-size="13" font-weight="700" fill="#2c2d2e" font-family="PingFang TC, Noto Sans TC, sans-serif">a</text>
<circle cx="218.0" cy="554.0" r="5" fill="#2c2d2e"/>
<circle cx="224.4" cy="554.0" r="5" fill="#2c2d2e"/>
<text x="231.4" y="547.0" font-size="13" font-weight="700" fill="#2c2d2e" font-family="PingFang TC, Noto Sans TC, sans-serif">m</text>
<circle cx="230.7" cy="554.0" r="5" fill="#2c2d2e"/>
<circle cx="237.1" cy="554.0" r="5" fill="#2c2d2e"/>
<text x="244.1" y="547.0" font-size="13" font-weight="700" fill="#2c2d2e" font-family="PingFang TC, Noto Sans TC, sans-serif">i</text>
<circle cx="243.4" cy="554.0" r="5" fill="#2c2d2e"/>
<circle cx="249.8" cy="554.0" r="5" fill="#2c2d2e"/>
<text x="256.8" y="547.0" font-size="13" font-weight="700" fill="#2c2d2e" font-family="PingFang TC, Noto Sans TC, sans-serif">（</text>
<circle cx="256.1" cy="554.0" r="5" fill="#2c2d2e"/>
<circle cx="262.5" cy="554.0" r="5" fill="#2c2d2e"/>
<text x="269.5" y="547.0" font-size="13" font-weight="700" fill="#2c2d2e" font-family="PingFang TC, Noto Sans TC, sans-serif">文</text>
<circle cx="268.9" cy="554.0" r="5" fill="#2c2d2e"/>
<circle cx="275.2" cy="554.0" r="5" fill="#2c2d2e"/>
<text x="282.2" y="547.0" font-size="13" font-weight="700" fill="#2c2d2e" font-family="PingFang TC, Noto Sans TC, sans-serif">我</text>
<circle cx="281.6" cy="554.0" r="5" fill="#2c2d2e"/>
<circle cx="287.9" cy="554.0" r="5" fill="#2c2d2e"/>
<text x="294.9" y="547.0" font-size="13" font-weight="700" fill="#2c2d2e" font-family="PingFang TC, Noto Sans TC, sans-serif">你</text>
<circle cx="294.3" cy="554.0" r="5" fill="#2c2d2e"/>
<circle cx="300.6" cy="554.0" r="5" fill="#2c2d2e"/>
<text x="307.6" y="547.0" font-size="13" font-weight="700" fill="#2c2d2e" font-family="PingFang TC, Noto Sans TC, sans-serif">刻</text>
<circle cx="307.0" cy="554.0" r="5" fill="#2c2d2e"/>
<circle cx="313.3" cy="554.0" r="5" fill="#2c2d2e"/>
<text x="320.3" y="547.0" font-size="13" font-weight="700" fill="#2c2d2e" font-family="PingFang TC, Noto Sans TC, sans-serif">銘</text>
<circle cx="319.7" cy="554.0" r="5" fill="#2c2d2e"/>
<circle cx="326.0" cy="554.0" r="5" fill="#2c2d2e"/>
<text x="333.0" y="547.0" font-size="13" font-weight="700" fill="#2c2d2e" font-family="PingFang TC, Noto Sans TC, sans-serif">只</text>
<circle cx="332.4" cy="554.0" r="5" fill="#2c2d2e"/>
<circle cx="338.8" cy="554.0" r="5" fill="#2c2d2e"/>
<text x="345.8" y="547.0" font-size="13" font-weight="700" fill="#2c2d2e" font-family="PingFang TC, Noto Sans TC, sans-serif">我</text>
<circle cx="345.1" cy="554.0" r="5" fill="#2c2d2e"/>
<circle cx="351.5" cy="554.0" r="5" fill="#2c2d2e"/>
<text x="358.5" y="547.0" font-size="13" font-weight="700" fill="#2c2d2e" font-family="PingFang TC, Noto Sans TC, sans-serif">己</text>
<circle cx="211.7" cy="554.0" r="5" fill="#2c2d2e"/>
<circle cx="218.0" cy="554.0" r="5" fill="#2c2d2e"/>
<text x="225.0" y="547.0" font-size="13" font-weight="700" fill="#2c2d2e" font-family="PingFang TC, Noto Sans TC, sans-serif">不</text>
<circle cx="224.4" cy="554.0" r="5" fill="#2c2d2e"/>
<circle cx="230.7" cy="554.0" r="5" fill="#2c2d2e"/>
<text x="237.7" y="547.0" font-size="13" font-weight="700" fill="#2c2d2e" font-family="PingFang TC, Noto Sans TC, sans-serif">易</text>
<circle cx="237.1" cy="554.0" r="5" fill="#2c2d2e"/>
<circle cx="243.4" cy="554.0" r="5" fill="#2c2d2e"/>
<text x="250.4" y="547.0" font-size="13" font-weight="700" fill="#2c2d2e" font-family="PingFang TC, Noto Sans TC, sans-serif">出</text>
<circle cx="249.8" cy="554.0" r="5" fill="#2c2d2e"/>
<circle cx="256.1" cy="554.0" r="5" fill="#2c2d2e"/>
<text x="263.1" y="547.0" font-size="13" font-weight="700" fill="#2c2d2e" font-family="PingFang TC, Noto Sans TC, sans-serif">心</text>
<circle cx="262.5" cy="554.0" r="5" fill="#2c2d2e"/>
<circle cx="268.9" cy="554.0" r="5" fill="#2c2d2e"/>
<text x="275.9" y="547.0" font-size="13" font-weight="700" fill="#2c2d2e" font-family="PingFang TC, Noto Sans TC, sans-serif">勇</text>
<circle cx="275.2" cy="554.0" r="5" fill="#2c2d2e"/>
<circle cx="237.1" cy="554.0" r="5" fill="#2c2d2e"/>
<text x="244.1" y="547.0" font-size="13" font-weight="700" fill="#2c2d2e" font-family="PingFang TC, Noto Sans TC, sans-serif">你</text>
<circle cx="243.4" cy="554.0" r="5" fill="#2c2d2e"/>
<circle cx="249.8" cy="554.0" r="5" fill="#2c2d2e"/>
<text x="256.8" y="547.0" font-size="13" font-weight="700" fill="#2c2d2e" font-family="PingFang TC, Noto Sans TC, sans-serif">默</text>
<circle cx="256.1" cy="554.0" r="5" fill="#2c2d2e"/>
<circle cx="262.5" cy="554.0" r="5" fill="#2c2d2e"/>
<text x="269.5" y="547.0" font-size="13" font-weight="700" fill="#2c2d2e" font-family="PingFang TC, Noto Sans TC, sans-serif">回</text>
<circle cx="268.9" cy="554.0" r="5" fill="#2c2d2e"/>
<circle cx="275.2" cy="554.0" r="5" fill="#2c2d2e"/>
<text x="282.2" y="547.0" font-size="13" font-weight="700" fill="#2c2d2e" font-family="PingFang TC, Noto Sans TC, sans-serif">是</text>
<circle cx="281.6" cy="554.0" r="5" fill="#2c2d2e"/>
<circle cx="287.9" cy="554.0" r="5" fill="#2c2d2e"/>
<text x="294.9" y="547.0" font-size="13" font-weight="700" fill="#2c2d2e" font-family="PingFang TC, Noto Sans TC, sans-serif">意</text>
<circle cx="110.0" cy="554.0" r="5" fill="#2c2d2e"/>
<circle cx="116.4" cy="554.0" r="5" fill="#2c2d2e"/>
<text x="123.4" y="547.0" font-size="13" font-weight="700" fill="#2c2d2e" font-family="PingFang TC, Noto Sans TC, sans-serif">在</text>
<circle cx="122.7" cy="554.0" r="5" fill="#2c2d2e"/>
<circle cx="129.1" cy="554.0" r="5" fill="#2c2d2e"/>
<text x="136.1" y="547.0" font-size="13" font-weight="700" fill="#2c2d2e" font-family="PingFang TC, Noto Sans TC, sans-serif">心</text>
<circle cx="135.4" cy="554.0" r="5" fill="#2c2d2e"/>
<circle cx="141.8" cy="554.0" r="5" fill="#2c2d2e"/>
<text x="148.8" y="547.0" font-size="13" font-weight="700" fill="#2c2d2e" font-family="PingFang TC, Noto Sans TC, sans-serif">的</text>
<circle cx="148.1" cy="554.0" r="5" fill="#2c2d2e"/>
<circle cx="154.5" cy="554.0" r="5" fill="#2c2d2e"/>
<text x="161.5" y="547.0" font-size="13" font-weight="700" fill="#2c2d2e" font-family="PingFang TC, Noto Sans TC, sans-serif">字</text>
<circle cx="135.4" cy="554.0" r="5" fill="#2c2d2e"/>
<circle cx="141.8" cy="554.0" r="5" fill="#2c2d2e"/>
<text x="148.8" y="547.0" font-size="13" font-weight="700" fill="#2c2d2e" font-family="PingFang TC, Noto Sans TC, sans-serif">記</text>
<circle cx="148.1" cy="554.0" r="5" fill="#2c2d2e"/>
<circle cx="154.5" cy="554.0" r="5" fill="#2c2d2e"/>
<text x="161.5" y="547.0" font-size="13" font-weight="700" fill="#2c2d2e" font-family="PingFang TC, Noto Sans TC, sans-serif">時</text>
<circle cx="160.8" cy="554.0" r="5" fill="#2c2d2e"/>
<circle cx="167.2" cy="554.0" r="5" fill="#2c2d2e"/>
<text x="174.2" y="547.0" font-size="13" font-weight="700" fill="#2c2d2e" font-family="PingFang TC, Noto Sans TC, sans-serif">這</text>
<circle cx="173.5" cy="554.0" r="5" fill="#2c2d2e"/>
<circle cx="179.9" cy="554.0" r="5" fill="#2c2d2e"/>
<text x="186.9" y="547.0" font-size="13" font-weight="700" fill="#2c2d2e" font-family="PingFang TC, Noto Sans TC, sans-serif">事</text>
<circle cx="160.8" cy="554.0" r="5" fill="#2c2d2e"/>
<circle cx="167.2" cy="554.0" r="5" fill="#2c2d2e"/>
<text x="174.2" y="547.0" font-size="13" font-weight="700" fill="#2c2d2e" font-family="PingFang TC, Noto Sans TC, sans-serif">是</text>
<circle cx="173.5" cy="554.0" r="5" fill="#2c2d2e"/>
<circle cx="179.9" cy="554.0" r="5" fill="#2c2d2e"/>
<text x="186.9" y="547.0" font-size="13" font-weight="700" fill="#2c2d2e" font-family="PingFang TC, Noto Sans TC, sans-serif">言</text>
<circle cx="186.2" cy="554.0" r="5" fill="#2c2d2e"/>
<circle cx="192.6" cy="554.0" r="5" fill="#2c2d2e"/>
<text x="199.6" y="547.0" font-size="13" font-weight="700" fill="#2c2d2e" font-family="PingFang TC, Noto Sans TC, sans-serif">了</text>
<circle cx="199.0" cy="554.0" r="5" fill="#2c2d2e"/>
<circle cx="205.3" cy="554.0" r="5" fill="#2c2d2e"/>
<text x="212.3" y="547.0" font-size="13" font-weight="700" fill="#2c2d2e" font-family="PingFang TC, Noto Sans TC, sans-serif">次</text>
<circle cx="211.7" cy="554.0" r="5" fill="#2c2d2e"/>
<circle cx="218.0" cy="554.0" r="5" fill="#2c2d2e"/>
<text x="225.0" y="547.0" font-size="13" font-weight="700" fill="#2c2d2e" font-family="PingFang TC, Noto Sans TC, sans-serif">一</text>
<circle cx="224.4" cy="554.0" r="5" fill="#2c2d2e"/>
<circle cx="230.7" cy="554.0" r="5" fill="#2c2d2e"/>
<text x="237.7" y="547.0" font-size="13" font-weight="700" fill="#2c2d2e" font-family="PingFang TC, Noto Sans TC, sans-serif">子</text>
<circle cx="186.2" cy="554.0" r="5" fill="#2c2d2e"/>
<circle cx="192.6" cy="554.0" r="5" fill="#2c2d2e"/>
<text x="199.6" y="547.0" font-size="13" font-weight="700" fill="#2c2d2e" font-family="PingFang TC, Noto Sans TC, sans-serif">然</text>
<circle cx="199.0" cy="554.0" r="5" fill="#2c2d2e"/>
<rect x="40" y="608" width="1320" height="238" rx="8" fill="#fffaf0" stroke="#d7d0c4"/>
<text x="64.0" y="639.0" font-size="24" font-weight="900" fill="#c9515b" font-family="PingFang TC, Noto Sans TC, sans-serif">Intersection Trail Matrix</text>
<line x1="110" y1="818" x2="1330" y2="818" stroke="#9a9286" stroke-width="2"/>
<line x1="110.0" y1="654" x2="110.0" y2="818" stroke="#e5ded1" stroke-width="1"/>
<line x1="415.0" y1="654" x2="415.0" y2="818" stroke="#e5ded1" stroke-width="1"/>
<line x1="720.0" y1="654" x2="720.0" y2="818" stroke="#e5ded1" stroke-width="1"/>
<line x1="1025.0" y1="654" x2="1025.0" y2="818" stroke="#e5ded1" stroke-width="1"/>
<line x1="1330.0" y1="654" x2="1330.0" y2="818" stroke="#e5ded1" stroke-width="1"/>
<rect x="205.7" y="800.0" width="12" height="12" rx="3" fill="#c9515b"/>
<text x="220.7" y="799.0" font-size="13" font-weight="850" fill="#c9515b" font-family="PingFang TC, Noto Sans TC, sans-serif">C/O</text>
<rect x="231.1" y="774.5" width="12" height="12" rx="3" fill="#c9515b"/>
<text x="246.1" y="773.5" font-size="13" font-weight="850" fill="#c9515b" font-family="PingFang TC, Noto Sans TC, sans-serif">E7/好</text>
<rect x="256.5" y="742.7" width="12" height="12" rx="3" fill="#c9515b"/>
<text x="271.5" y="741.7" font-size="13" font-weight="850" fill="#c9515b" font-family="PingFang TC, Noto Sans TC, sans-serif">Am/自</text>
<rect x="281.9" y="800.0" width="12" height="12" rx="3" fill="#c9515b"/>
<text x="296.9" y="799.0" font-size="13" font-weight="850" fill="#c9515b" font-family="PingFang TC, Noto Sans TC, sans-serif">C7/己</text>
<rect x="307.3" y="768.2" width="12" height="12" rx="3" fill="#c9515b"/>
<text x="322.3" y="767.2" font-size="13" font-weight="850" fill="#c9515b" font-family="PingFang TC, Noto Sans TC, sans-serif">F/越</text>
<rect x="332.8" y="800.0" width="12" height="12" rx="3" fill="#c9515b"/>
<text x="347.8" y="799.0" font-size="13" font-weight="850" fill="#c9515b" font-family="PingFang TC, Noto Sans TC, sans-serif">C/越</text>
<rect x="358.2" y="787.3" width="12" height="12" rx="3" fill="#c9515b"/>
<text x="373.2" y="786.3" font-size="13" font-weight="850" fill="#c9515b" font-family="PingFang TC, Noto Sans TC, sans-serif">Dm/無</text>
<rect x="370.9" y="755.5" width="12" height="12" rx="3" fill="#c9515b"/>
<text x="385.9" y="754.5" font-size="13" font-weight="850" fill="#c9515b" font-family="PingFang TC, Noto Sans TC, sans-serif">G7/而</text>
<rect x="383.6" y="800.0" width="12" height="12" rx="3" fill="#c9515b"/>
<text x="398.6" y="799.0" font-size="13" font-weight="850" fill="#c9515b" font-family="PingFang TC, Noto Sans TC, sans-serif">C/J</text>
<rect x="409.0" y="774.5" width="12" height="12" rx="3" fill="#c9515b"/>
<text x="424.0" y="773.5" font-size="13" font-weight="850" fill="#c9515b" font-family="PingFang TC, Noto Sans TC, sans-serif">E7/刻</text>
<rect x="434.4" y="742.7" width="12" height="12" rx="3" fill="#c9515b"/>
<text x="449.4" y="741.7" font-size="13" font-weight="850" fill="#c9515b" font-family="PingFang TC, Noto Sans TC, sans-serif">Am/只</text>
<rect x="459.8" y="800.0" width="12" height="12" rx="3" fill="#c9515b"/>
<text x="474.8" y="799.0" font-size="13" font-weight="850" fill="#c9515b" font-family="PingFang TC, Noto Sans TC, sans-serif">C7/己</text>
<rect x="485.2" y="768.2" width="12" height="12" rx="3" fill="#c9515b"/>
<text x="500.2" y="767.2" font-size="13" font-weight="850" fill="#c9515b" font-family="PingFang TC, Noto Sans TC, sans-serif">F/好</text>
<rect x="510.7" y="768.2" width="12" height="12" rx="3" fill="#c9515b"/>
<text x="525.7" y="767.2" font-size="13" font-weight="850" fill="#c9515b" font-family="PingFang TC, Noto Sans TC, sans-serif">Fm/你</text>
<rect x="536.1" y="755.5" width="12" height="12" rx="3" fill="#c9515b"/>
<text x="551.1" y="754.5" font-size="13" font-weight="850" fill="#c9515b" font-family="PingFang TC, Noto Sans TC, sans-serif">G/是</text>
<rect x="561.5" y="800.0" width="12" height="12" rx="3" fill="#c9515b"/>
<text x="576.5" y="799.0" font-size="13" font-weight="850" fill="#c9515b" font-family="PingFang TC, Noto Sans TC, sans-serif">C/刻</text>
<rect x="586.9" y="774.5" width="12" height="12" rx="3" fill="#c9515b"/>
<text x="601.9" y="773.5" font-size="13" font-weight="850" fill="#c9515b" font-family="PingFang TC, Noto Sans TC, sans-serif">E7/忘</text>
<rect x="612.3" y="742.7" width="12" height="12" rx="3" fill="#c9515b"/>
<text x="627.3" y="741.7" font-size="13" font-weight="850" fill="#c9515b" font-family="PingFang TC, Noto Sans TC, sans-serif">Am/於</text>
<rect x="637.8" y="787.3" width="12" height="12" rx="3" fill="#c9515b"/>
<text x="652.8" y="786.3" font-size="13" font-weight="850" fill="#c9515b" font-family="PingFang TC, Noto Sans TC, sans-serif">D7/一</text>
<rect x="612.3" y="742.7" width="12" height="12" rx="3" fill="#c9515b"/>
<text x="627.3" y="741.7" font-size="13" font-weight="850" fill="#c9515b" font-family="PingFang TC, Noto Sans TC, sans-serif">Am/既</text>
<rect x="637.8" y="787.3" width="12" height="12" rx="3" fill="#c9515b"/>
<text x="652.8" y="786.3" font-size="13" font-weight="850" fill="#c9515b" font-family="PingFang TC, Noto Sans TC, sans-serif">D7/一</text>
<rect x="663.2" y="787.3" width="12" height="12" rx="3" fill="#c9515b"/>
<text x="678.2" y="786.3" font-size="13" font-weight="850" fill="#c9515b" font-family="PingFang TC, Noto Sans TC, sans-serif">Dm/曾</text>
<rect x="688.6" y="755.5" width="12" height="12" rx="3" fill="#c9515b"/>
<text x="703.6" y="754.5" font-size="13" font-weight="850" fill="#c9515b" font-family="PingFang TC, Noto Sans TC, sans-serif">G7/世</text>
<rect x="663.2" y="787.3" width="12" height="12" rx="3" fill="#c9515b"/>
<text x="678.2" y="786.3" font-size="13" font-weight="850" fill="#c9515b" font-family="PingFang TC, Noto Sans TC, sans-serif">Dm/希</text>
<rect x="688.6" y="755.5" width="12" height="12" rx="3" fill="#c9515b"/>
<text x="703.6" y="754.5" font-size="13" font-weight="850" fill="#c9515b" font-family="PingFang TC, Noto Sans TC, sans-serif">G7/世</text>
<rect x="714.0" y="774.5" width="12" height="12" rx="3" fill="#c9515b"/>
<text x="729.0" y="773.5" font-size="13" font-weight="850" fill="#c9515b" font-family="PingFang TC, Noto Sans TC, sans-serif">Em7/覺</text>
<rect x="739.4" y="742.7" width="12" height="12" rx="3" fill="#c9515b"/>
<text x="754.4" y="741.7" font-size="13" font-weight="850" fill="#c9515b" font-family="PingFang TC, Noto Sans TC, sans-serif">Am/奢</text>
<rect x="714.0" y="774.5" width="12" height="12" rx="3" fill="#c9515b"/>
<text x="729.0" y="773.5" font-size="13" font-weight="850" fill="#c9515b" font-family="PingFang TC, Noto Sans TC, sans-serif">Em7/想</text>
<rect x="739.4" y="742.7" width="12" height="12" rx="3" fill="#c9515b"/>
<text x="754.4" y="741.7" font-size="13" font-weight="850" fill="#c9515b" font-family="PingFang TC, Noto Sans TC, sans-serif">Am/奢</text>
<rect x="764.8" y="787.3" width="12" height="12" rx="3" fill="#c9515b"/>
<text x="779.8" y="786.3" font-size="13" font-weight="850" fill="#c9515b" font-family="PingFang TC, Noto Sans TC, sans-serif">Dm/如</text>
<rect x="790.2" y="755.5" width="12" height="12" rx="3" fill="#c9515b"/>
<text x="805.2" y="754.5" font-size="13" font-weight="850" fill="#c9515b" font-family="PingFang TC, Noto Sans TC, sans-serif">G/我</text>
<rect x="815.7" y="800.0" width="12" height="12" rx="3" fill="#c9515b"/>
<text x="830.7" y="799.0" font-size="13" font-weight="850" fill="#c9515b" font-family="PingFang TC, Noto Sans TC, sans-serif">C/刻</text>
<rect x="841.1" y="774.5" width="12" height="12" rx="3" fill="#c9515b"/>
<text x="856.1" y="773.5" font-size="13" font-weight="850" fill="#c9515b" font-family="PingFang TC, Noto Sans TC, sans-serif">E7/你</text>
<rect x="866.5" y="742.7" width="12" height="12" rx="3" fill="#c9515b"/>
<text x="881.5" y="741.7" font-size="13" font-weight="850" fill="#c9515b" font-family="PingFang TC, Noto Sans TC, sans-serif">Am/要</text>
<rect x="891.9" y="787.3" width="12" height="12" rx="3" fill="#c9515b"/>
<text x="906.9" y="786.3" font-size="13" font-weight="850" fill="#c9515b" font-family="PingFang TC, Noto Sans TC, sans-serif">D7/一</text>
<rect x="917.3" y="787.3" width="12" height="12" rx="3" fill="#c9515b"/>
<text x="932.3" y="786.3" font-size="13" font-weight="850" fill="#c9515b" font-family="PingFang TC, Noto Sans TC, sans-serif">Dm/我</text>
<rect x="942.8" y="755.5" width="12" height="12" rx="3" fill="#c9515b"/>
<text x="957.8" y="754.5" font-size="13" font-weight="850" fill="#c9515b" font-family="PingFang TC, Noto Sans TC, sans-serif">G7/霓</text>
<rect x="917.3" y="787.3" width="12" height="12" rx="3" fill="#c9515b"/>
<text x="932.3" y="786.3" font-size="13" font-weight="850" fill="#c9515b" font-family="PingFang TC, Noto Sans TC, sans-serif">Dm/我</text>
<rect x="942.8" y="755.5" width="12" height="12" rx="3" fill="#c9515b"/>
<text x="957.8" y="754.5" font-size="13" font-weight="850" fill="#c9515b" font-family="PingFang TC, Noto Sans TC, sans-serif">G7/想</text>
<rect x="968.2" y="774.5" width="12" height="12" rx="3" fill="#c9515b"/>
<text x="983.2" y="773.5" font-size="13" font-weight="850" fill="#c9515b" font-family="PingFang TC, Noto Sans TC, sans-serif">Em7/握</text>
<rect x="993.6" y="742.7" width="12" height="12" rx="3" fill="#c9515b"/>
<text x="1008.6" y="741.7" font-size="13" font-weight="850" fill="#c9515b" font-family="PingFang TC, Noto Sans TC, sans-serif">Am/天</text>
<rect x="968.2" y="774.5" width="12" height="12" rx="3" fill="#c9515b"/>
<text x="983.2" y="773.5" font-size="13" font-weight="850" fill="#c9515b" font-family="PingFang TC, Noto Sans TC, sans-serif">Em7/握</text>
<rect x="993.6" y="742.7" width="12" height="12" rx="3" fill="#c9515b"/>
<text x="1008.6" y="741.7" font-size="13" font-weight="850" fill="#c9515b" font-family="PingFang TC, Noto Sans TC, sans-serif">Am/天</text>
<rect x="1019.0" y="787.3" width="12" height="12" rx="3" fill="#c9515b"/>
<text x="1034.0" y="786.3" font-size="13" font-weight="850" fill="#c9515b" font-family="PingFang TC, Noto Sans TC, sans-serif">Dm/你</text>
<rect x="1044.4" y="755.5" width="12" height="12" rx="3" fill="#c9515b"/>
<text x="1059.4" y="754.5" font-size="13" font-weight="850" fill="#c9515b" font-family="PingFang TC, Noto Sans TC, sans-serif">G/可</text>
<rect x="1069.8" y="800.0" width="12" height="12" rx="3" fill="#c9515b"/>
<text x="1084.8" y="799.0" font-size="13" font-weight="850" fill="#c9515b" font-family="PingFang TC, Noto Sans TC, sans-serif">C/滯</text>
<rect x="1019.0" y="787.3" width="12" height="12" rx="3" fill="#c9515b"/>
<text x="1034.0" y="786.3" font-size="13" font-weight="850" fill="#c9515b" font-family="PingFang TC, Noto Sans TC, sans-serif">Dm/你</text>
<rect x="1044.4" y="755.5" width="12" height="12" rx="3" fill="#c9515b"/>
<text x="1059.4" y="754.5" font-size="13" font-weight="850" fill="#c9515b" font-family="PingFang TC, Noto Sans TC, sans-serif">G/還</text>
<rect x="1069.8" y="800.0" width="12" height="12" rx="3" fill="#c9515b"/>
<text x="1084.8" y="799.0" font-size="13" font-weight="850" fill="#c9515b" font-family="PingFang TC, Noto Sans TC, sans-serif">C/持</text>
<rect x="1171.5" y="800.0" width="12" height="12" rx="3" fill="#c9515b"/>
<text x="1186.5" y="799.0" font-size="13" font-weight="850" fill="#c9515b" font-family="PingFang TC, Noto Sans TC, sans-serif">C/尋</text>
<rect x="1196.9" y="774.5" width="12" height="12" rx="3" fill="#c9515b"/>
<text x="1211.9" y="773.5" font-size="13" font-weight="850" fill="#c9515b" font-family="PingFang TC, Noto Sans TC, sans-serif">E7/茫</text>
<rect x="1222.3" y="742.7" width="12" height="12" rx="3" fill="#c9515b"/>
<text x="1237.3" y="741.7" font-size="13" font-weight="850" fill="#c9515b" font-family="PingFang TC, Noto Sans TC, sans-serif">Am/卻</text>
<rect x="1247.8" y="800.0" width="12" height="12" rx="3" fill="#c9515b"/>
<text x="1262.8" y="799.0" font-size="13" font-weight="850" fill="#c9515b" font-family="PingFang TC, Noto Sans TC, sans-serif">C7/你</text>
<rect x="1273.2" y="768.2" width="12" height="12" rx="3" fill="#c9515b"/>
<text x="1288.2" y="767.2" font-size="13" font-weight="850" fill="#c9515b" font-family="PingFang TC, Noto Sans TC, sans-serif">F/好</text>
<rect x="1298.6" y="768.2" width="12" height="12" rx="3" fill="#c9515b"/>
<text x="1313.6" y="767.2" font-size="13" font-weight="850" fill="#c9515b" font-family="PingFang TC, Noto Sans TC, sans-serif">Fm/回</text>
<rect x="1324.0" y="755.5" width="12" height="12" rx="3" fill="#c9515b"/>
<text x="1339.0" y="754.5" font-size="13" font-weight="850" fill="#c9515b" font-family="PingFang TC, Noto Sans TC, sans-serif">G/到</text>
</svg>